<svg width="313" height="69" viewBox="0 0 313 69" fill="none" xmlns="http://www.w3.org/2000/svg">
<path d="M46.5227 27.8182C46.5227 33.3409 45.5256 38.1136 43.5312 42.1364C41.5369 46.1591 38.8011 49.2614 35.3239 51.4432C31.8466 53.625 27.875 54.7159 23.4091 54.7159C18.9432 54.7159 14.9716 53.625 11.4943 51.4432C8.01705 49.2614 5.28125 46.1591 3.28693 42.1364C1.29261 38.1136 0.295455 33.3409 0.295455 27.8182C0.295455 22.2955 1.29261 17.5227 3.28693 13.5C5.28125 9.47727 8.01705 6.375 11.4943 4.19318C14.9716 2.01136 18.9432 0.920453 23.4091 0.920453C27.875 0.920453 31.8466 2.01136 35.3239 4.19318C38.8011 6.375 41.5369 9.47727 43.5312 13.5C45.5256 17.5227 46.5227 22.2955 46.5227 27.8182ZM40.3864 27.8182C40.3864 23.2841 39.6278 19.4574 38.1108 16.3381C36.6108 13.2188 34.5739 10.858 32 9.25568C29.4432 7.65341 26.5795 6.85227 23.4091 6.85227C20.2386 6.85227 17.3665 7.65341 14.7926 9.25568C12.2358 10.858 10.1989 13.2188 8.68182 16.3381C7.18182 19.4574 6.43182 23.2841 6.43182 27.8182C6.43182 32.3523 7.18182 36.179 8.68182 39.2983C10.1989 42.4176 12.2358 44.7784 14.7926 46.3807C17.3665 47.983 20.2386 48.7841 23.4091 48.7841C26.5795 48.7841 29.4432 47.983 32 46.3807C34.5739 44.7784 36.6108 42.4176 38.1108 39.2983C39.6278 36.179 40.3864 32.3523 40.3864 27.8182ZM56.3665 68.7273V14.7273H62.196V20.9659H62.9119C63.3551 20.2841 63.9688 19.4148 64.7528 18.358C65.554 17.2841 66.696 16.3295 68.179 15.4943C69.679 14.642 71.7074 14.2159 74.2642 14.2159C77.571 14.2159 80.4858 15.0426 83.0085 16.696C85.5313 18.3494 87.5 20.6932 88.9148 23.7273C90.3295 26.7614 91.0369 30.3409 91.0369 34.4659C91.0369 38.625 90.3295 42.2301 88.9148 45.2812C87.5 48.3153 85.5398 50.6676 83.0341 52.3381C80.5284 53.9915 77.6392 54.8182 74.3665 54.8182C71.8438 54.8182 69.8239 54.4006 68.3068 53.5653C66.7898 52.7131 65.6222 51.75 64.804 50.6761C63.9858 49.5852 63.3551 48.6818 62.9119 47.9659H62.4006V68.7273H56.3665ZM62.2983 34.3636C62.2983 37.3295 62.733 39.946 63.6023 42.2131C64.4716 44.4631 65.7415 46.2273 67.4119 47.5057C69.0824 48.767 71.1278 49.3977 73.5483 49.3977C76.071 49.3977 78.1761 48.733 79.8636 47.4034C81.5682 46.0568 82.8466 44.25 83.6989 41.983C84.5682 39.6989 85.0028 37.1591 85.0028 34.3636C85.0028 31.6023 84.5767 29.1136 83.7244 26.8977C82.8892 24.6648 81.6193 22.9006 79.9148 21.6051C78.2273 20.2926 76.1051 19.6364 73.5483 19.6364C71.0938 19.6364 69.0313 20.2585 67.3608 21.5028C65.6903 22.7301 64.429 24.4517 63.5767 26.6676C62.7244 28.8665 62.2983 31.4318 62.2983 34.3636ZM116.707 54.8182C112.923 54.8182 109.659 53.983 106.915 52.3125C104.188 50.625 102.082 48.2727 100.599 45.2557C99.1335 42.2216 98.4006 38.6932 98.4006 34.6705C98.4006 30.6477 99.1335 27.1023 100.599 24.0341C102.082 20.9489 104.145 18.5455 106.787 16.8239C109.446 15.0852 112.548 14.2159 116.094 14.2159C118.139 14.2159 120.159 14.5568 122.153 15.2386C124.148 15.9205 125.963 17.0284 127.599 18.5625C129.236 20.0795 130.54 22.0909 131.511 24.5966C132.483 27.1023 132.969 30.1875 132.969 33.8523V36.4091H102.696V31.1932H126.832C126.832 28.9773 126.389 27 125.503 25.2614C124.634 23.5227 123.389 22.1506 121.77 21.1449C120.168 20.1392 118.276 19.6364 116.094 19.6364C113.69 19.6364 111.611 20.233 109.855 21.4261C108.116 22.6023 106.778 24.1364 105.841 26.0284C104.903 27.9205 104.435 29.9489 104.435 32.1136V35.5909C104.435 38.5568 104.946 41.071 105.969 43.1335C107.009 45.179 108.449 46.7386 110.29 47.8125C112.131 48.8693 114.27 49.3977 116.707 49.3977C118.293 49.3977 119.724 49.1761 121.003 48.733C122.298 48.2727 123.415 47.5909 124.352 46.6875C125.29 45.767 126.014 44.625 126.526 43.2614L132.355 44.8977C131.741 46.875 130.71 48.6136 129.261 50.1136C127.813 51.5966 126.023 52.7557 123.892 53.5909C121.761 54.4091 119.366 54.8182 116.707 54.8182ZM148.182 30.375V54H142.148V14.7273H147.977V20.8636H148.489C149.409 18.8693 150.807 17.267 152.682 16.0568C154.557 14.8295 156.977 14.2159 159.943 14.2159C162.602 14.2159 164.929 14.7614 166.923 15.8523C168.918 16.9261 170.469 18.5625 171.577 20.7614C172.685 22.9432 173.239 25.7045 173.239 29.0455V54H167.205V29.4545C167.205 26.3693 166.403 23.9659 164.801 22.2443C163.199 20.5057 161 19.6364 158.205 19.6364C156.278 19.6364 154.557 20.054 153.04 20.8892C151.54 21.7244 150.355 22.9432 149.486 24.5455C148.616 26.1477 148.182 28.0909 148.182 30.375Z" fill="white"/>
<path d="M185.083 54V1.63636H202.776C206.867 1.63636 210.225 2.33523 212.85 3.73295C215.475 5.11363 217.418 7.0142 218.68 9.43466C219.941 11.8551 220.572 14.608 220.572 17.6932C220.572 20.7784 219.941 23.5142 218.68 25.9006C217.418 28.2869 215.484 30.1619 212.876 31.5256C210.268 32.8722 206.935 33.5455 202.879 33.5455H188.56V27.8182H202.674C205.469 27.8182 207.719 27.4091 209.424 26.5909C211.146 25.7727 212.39 24.6136 213.157 23.1136C213.941 21.5966 214.333 19.7898 214.333 17.6932C214.333 15.5966 213.941 13.7642 213.157 12.196C212.373 10.6278 211.12 9.41761 209.398 8.56534C207.677 7.69602 205.401 7.26136 202.572 7.26136H191.424V54H185.083ZM209.731 30.4773L222.617 54H215.254L202.572 30.4773H209.731ZM259.774 14.7273C259.467 12.1364 258.223 10.125 256.041 8.69318C253.859 7.26136 251.183 6.54545 248.013 6.54545C245.695 6.54545 243.666 6.92045 241.928 7.67045C240.206 8.42045 238.859 9.4517 237.888 10.7642C236.933 12.0767 236.456 13.5682 236.456 15.2386C236.456 16.6364 236.788 17.8381 237.453 18.8438C238.135 19.8324 239.004 20.6591 240.061 21.3239C241.118 21.9716 242.226 22.5085 243.385 22.9347C244.544 23.3437 245.609 23.6761 246.581 23.9318L251.899 25.3636C253.263 25.7216 254.78 26.2159 256.45 26.8466C258.138 27.4773 259.749 28.3381 261.283 29.429C262.834 30.5028 264.112 31.8835 265.118 33.571C266.124 35.2585 266.626 37.3295 266.626 39.7841C266.626 42.6136 265.885 45.1705 264.402 47.4545C262.936 49.7386 260.788 51.554 257.959 52.9006C255.146 54.2472 251.729 54.9205 247.706 54.9205C243.956 54.9205 240.709 54.3153 237.964 53.1051C235.237 51.8949 233.089 50.2074 231.521 48.0426C229.97 45.8778 229.092 43.3636 228.888 40.5H235.433C235.604 42.4773 236.268 44.1136 237.428 45.4091C238.604 46.6875 240.087 47.642 241.876 48.2727C243.683 48.8864 245.626 49.1932 247.706 49.1932C250.126 49.1932 252.3 48.8011 254.226 48.017C256.152 47.2159 257.678 46.108 258.803 44.6932C259.928 43.2614 260.49 41.5909 260.49 39.6818C260.49 37.9432 260.004 36.5284 259.033 35.4375C258.061 34.3466 256.783 33.4602 255.197 32.7784C253.612 32.0966 251.899 31.5 250.058 30.9886L243.615 29.1477C239.524 27.9716 236.286 26.2926 233.899 24.1108C231.513 21.929 230.32 19.0739 230.32 15.5455C230.32 12.6136 231.112 10.0568 232.697 7.875C234.3 5.67614 236.447 3.97159 239.141 2.76136C241.851 1.53409 244.876 0.920453 248.217 0.920453C251.592 0.920453 254.592 1.52557 257.217 2.73579C259.842 3.92897 261.922 5.56534 263.456 7.64488C265.007 9.72443 265.825 12.0852 265.911 14.7273H259.774ZM305.688 14.7273C305.381 12.1364 304.137 10.125 301.955 8.69318C299.773 7.26136 297.097 6.54545 293.927 6.54545C291.609 6.54545 289.58 6.92045 287.842 7.67045C286.12 8.42045 284.773 9.4517 283.802 10.7642C282.847 12.0767 282.37 13.5682 282.37 15.2386C282.37 16.6364 282.702 17.8381 283.367 18.8438C284.049 19.8324 284.918 20.6591 285.975 21.3239C287.032 21.9716 288.14 22.5085 289.299 22.9347C290.458 23.3437 291.523 23.6761 292.495 23.9318L297.813 25.3636C299.177 25.7216 300.694 26.2159 302.364 26.8466C304.052 27.4773 305.663 28.3381 307.197 29.429C308.748 30.5028 310.026 31.8835 311.032 33.571C312.038 35.2585 312.54 37.3295 312.54 39.7841C312.54 42.6136 311.799 45.1705 310.316 47.4545C308.85 49.7386 306.702 51.554 303.873 52.9006C301.06 54.2472 297.643 54.9205 293.62 54.9205C289.87 54.9205 286.623 54.3153 283.879 53.1051C281.151 51.8949 279.004 50.2074 277.435 48.0426C275.884 45.8778 275.006 43.3636 274.802 40.5H281.347C281.518 42.4773 282.183 44.1136 283.342 45.4091C284.518 46.6875 286.001 47.642 287.79 48.2727C289.597 48.8864 291.54 49.1932 293.62 49.1932C296.04 49.1932 298.214 48.8011 300.14 48.017C302.066 47.2159 303.592 46.108 304.717 44.6932C305.842 43.2614 306.404 41.5909 306.404 39.6818C306.404 37.9432 305.918 36.5284 304.947 35.4375C303.975 34.3466 302.697 33.4602 301.112 32.7784C299.526 32.0966 297.813 31.5 295.972 30.9886L289.529 29.1477C285.438 27.9716 282.2 26.2926 279.813 24.1108C277.427 21.929 276.234 19.0739 276.234 15.5455C276.234 12.6136 277.026 10.0568 278.612 7.875C280.214 5.67614 282.362 3.97159 285.055 2.76136C287.765 1.53409 290.79 0.920453 294.131 0.920453C297.506 0.920453 300.506 1.52557 303.131 2.73579C305.756 3.92897 307.836 5.56534 309.37 7.64488C310.921 9.72443 311.739 12.0852 311.825 14.7273H305.688Z" fill="#E6641C"/>
</svg>
